PathFileType	4	(X/Y/Z)	Patient4_TMGait_0pt7_01_right_31.trc.trc
DataRate	CameraRate	NumFrames	NumMarkers	Units	OrigDataRate	OrigDataStartFrame	OrigNumFrames
86.419753086420	86.419753086420	4	33	mm	86.419753086420	18	       141
Frame#	Time	Sacral			L.Shoulder			Chest			R.Shoulder			Neck			R.ASIS			L.ASIS			R.Thigh.Superior			R.Thigh.Lateral			R.Thigh.Inferior			R.Patella			L.Thigh.Superior			L.Thigh.Lateral			L.Thigh.Inferior			L.Patella			L.Shank.Superior			L.Shank.Lateral			L.Shank.Inferior			R.Shank.Superior			R.Shank.Lateral			R.Shank.Inferior			R.Heel			R.Midfoot.Superior			R.Midfoot.Lateral			R.Toe			L.Heel			L.Midfoot.Lateral			L.Midfoot.Superior			L.Toe			L.Elbow			L.Wrist			R.Elbow			R.Wrist			
		X1	Y1	Z1	X2	Y2	Z2	X3	Y3	Z3	X4	Y4	Z4	X5	Y5	Z5	X6	Y6	Z6	X7	Y7	Z7	X8	Y8	Z8	X9	Y9	Z9	X10	Y10	Z10	X11	Y11	Z11	X12	Y12	Z12	X13	Y13	Z13	X14	Y14	Z14	X15	Y15	Z15	X16	Y16	Z16	X17	Y17	Z17	X18	Y18	Z18	X19	Y19	Z19	X20	Y20	Z20	X21	Y21	Z21	X22	Y22	Z22	X23	Y23	Z23	X24	Y24	Z24	X25	Y25	Z25	X26	Y26	Z26	X27	Y27	Z27	X28	Y28	Z28	X29	Y29	Z29	X30	Y30	Z30	X31	Y31	Z31	X32	Y32	Z32	X33	Y33	Z33	

18	35.416714285714	790.737014025492	1004.141480236449	473.451893812612	1010.103404429668	1421.618192179408	299.820958778189	1091.786536792383	1346.430042383027	471.447921641667	998.038947868168	1431.903197635370	634.240955581012	1003.379887773525	1484.659932996636	453.077616707484	1006.260838594205	937.180625993879	609.764501358137	1015.069037163093	952.499616742242	333.600887644657	1085.446998857344	768.880543176089	582.336126168220	1046.445966937324	649.719257237907	658.516122567176	1133.130215834870	611.961631312232	576.928554890593	1171.376739730525	531.630861258542	598.237441575489	1016.220498580129	728.468721183002	365.448222729440	904.668677609819	634.994072252174	293.699026041233	957.264494573520	540.991126727080	363.337489679034	940.593594050062	475.738095352876	372.523716177482	909.812992154208	409.296674661055	361.480473800770	813.650356089817	305.064760313157	302.298056993354	842.589706597253	189.779258513240	378.759988537678	1156.994397925080	442.139407244629	609.872660922836	1107.328715893344	328.405021628294	676.144167177216	1176.466098992373	242.512565574902	624.081941414738	1084.639940201951	55.431040249859	599.100766145946	1249.975661942017	127.959101320096	636.272171140742	1171.652914362745	49.409500410765	668.073641461263	1374.986731899620	87.870531394618	655.351025312675	698.208423522085	40.147865736750	407.977046727896	778.272362701948	36.565572266979	334.277203149156	860.101214239015	95.728898991124	367.260470142067	989.553709730581	40.063521411747	348.842341388648	1064.619771112252	1103.609790570767	140.238228187373	1314.565424740289	1069.489045510056	186.679548700726	831.351499092797	1128.846132637446	743.639990543308	777.061944251020	872.172908621805	751.357641121944	
19	35.428285714286	792.707609174206	1001.737778902589	475.341171429269	1011.235241910952	1419.895611015112	302.239441530055	1092.667470103778	1344.947327130443	474.057686091916	998.457366501866	1430.383509159912	636.581776637721	1004.101130202499	1482.870512101611	455.412345361375	1007.932398185977	935.246949851535	612.329392039918	1017.432233902315	951.067723090306	335.883962075244	1085.783753802674	765.416438556553	585.505468239314	1044.778343837341	645.890980278718	660.366129155037	1132.026873681788	608.455877172050	579.358045128317	1169.054619308066	529.044128325202	599.536591380825	1016.344030645252	726.499773560523	367.137225386762	903.479392148030	634.241544239988	295.084623087765	954.873831639434	539.559228298915	364.593563560645	937.471344338757	474.116313889581	373.672564232280	905.810230607203	408.036367745183	362.450640018766	808.369091201498	305.103494948957	303.021697371769	835.787393899368	189.263077446051	379.136538679473	1156.931745755697	439.560414626223	610.751456203370	1109.075404554563	324.128481329170	675.325805131395	1181.075894215159	240.281263000705	623.416527611589	1093.676748709904	51.998782679409	595.910632939835	1257.702350315626	126.420829254394	635.080115830534	1180.139734494508	46.590921563457	665.504274245999	1383.020908177553	87.726863187883	654.550733530393	690.107438295965	40.387204325446	407.941878704951	770.203936119440	36.667004191938	334.308435778399	852.128245658016	95.746625791833	367.294599384829	981.482589003560	39.902861111056	348.775950170419	1067.519750728078	1102.858313882581	142.369606300333	1317.809846791504	1080.057538738192	190.729407600972	826.220580365140	1130.454841490662	743.377904779313	767.252046050680	874.680713635839	749.238042485802	
20	35.439857142857	794.787342786081	999.251795785048	477.502528323667	1012.355390806219	1418.004702375923	304.747761773676	1093.582586105376	1343.394277981035	476.773459455881	998.913344394129	1428.821586389837	639.034423735925	1004.810406812030	1480.997842454498	457.834375429643	1009.782502184605	933.176347626469	615.077191101885	1019.866600563598	949.530348152653	338.379791624334	1086.762292290821	762.264305629302	588.972090370530	1043.544019100431	641.984730828201	661.898157326677	1131.788476941265	605.247785621090	581.846136221757	1167.295331205764	526.180977617804	600.573693300457	1016.716898147566	724.500964771664	368.957278079078	902.648420521339	633.351390991126	296.678772378699	953.040269600409	538.006897773149	366.002700640928	934.971449450360	472.244143227841	374.958585353325	902.265654232044	406.556012226609	363.555160422258	803.361202042179	305.125170239022	303.869807808560	829.120916307903	188.665548303598	379.526147780574	1156.736278285283	436.585144634009	611.283851903446	1109.636888029809	320.006700611686	674.125763745583	1183.580326889735	237.645681760554	622.384401300526	1098.828232580863	49.306421734131	592.541706632482	1262.021906721206	124.144633755437	633.402966034238	1184.630442980070	44.113510898000	662.877758668918	1387.300923968055	85.938093758542	653.607759894496	681.988649940600	40.675630369281	407.878307632254	762.142161600091	36.768233816572	334.316926027056	844.188890112870	95.758464951443	367.309387562964	973.445891160207	39.757791616001	348.685418878071	1070.148011413956	1101.811285058816	144.686376032905	1320.299921787002	1089.515041104957	194.894648630748	822.088554639067	1131.602315982253	743.483467594412	759.249447847980	876.581477944867	747.304102021636	
21	35.451428571429	796.934044388199	996.744715116913	479.926713432763	1013.489076135181	1415.984602523428	307.354398269643	1094.549478355669	1341.791465585805	479.600679998183	999.433598883452	1427.238422362366	641.608864083510	1005.542385428047	1479.082563310008	460.354556271560	1011.799633691487	931.018930211094	617.974633671889	1022.325007542214	947.913339749980	341.088273121503	1088.404177613500	759.463951567293	592.622845166955	1042.812703419389	638.119916030009	663.088592879793	1132.405177015729	602.383390673230	584.303817172163	1166.174084779601	523.126153196380	601.295083567885	1017.378316494632	722.501873830793	370.886007453791	902.240531698718	632.298878924281	298.494478740424	951.891847872335	536.319818188674	367.560063815087	933.252080217984	470.086715945841	376.356292136696	899.287009204972	404.830258227782	364.790322853669	798.703521967759	305.145582017282	304.844715059740	822.637294542234	187.997103950937	379.912664899639	1156.504089116614	433.304175768365	611.461904708470	1109.248798857182	316.083380106528	672.683347254432	1184.207536880738	234.614394353799	621.046407568958	1100.351560700438	47.185706849967	589.239658304038	1263.231280510431	121.178378904699	631.321812946560	1185.466294403517	41.950084154432	660.376365770266	1388.203289913312	82.667701881635	652.513897363402	673.855207486403	41.081689583681	407.774180534550	754.087365787368	36.890067958713	334.295942710015	836.307684157344	95.762675628436	367.292437979850	965.444454312564	39.624089379636	348.573963825613	1072.467016156109	1100.482010836131	147.186524857640	1322.105659381804	1097.787940606728	199.157049825628	819.006565355077	1132.208185867918	743.991286915043	753.079143541901	877.777486670837	745.649331717341	
